<?xml version="1.0" encoding="UTF-8" standalone="yes"?><svg id="_图层_1" xmlns="http://www.w3.org/2000/svg" xmlns:xlink="http://www.w3.org/1999/xlink" version="1.2" baseProfile="tiny" x="0" y="0" width="256" height="256" viewBox="0 0 256 256"><defs/><defs/><defs/><defs/><defs/><defs/><defs/><defs><clipPath id="clippath" clipPathUnits="userSpaceOnUse"><rect class="cls-1" fill="none" stroke-width="0" x="0" y="0" width="256" height="256"/></clipPath><g id="mask0_17_18549"><path fill="#333333" fill-opacity="1" stroke-width="0" d="M 256 0 L 0 0 L 0 256 L 256 256 L 256 0 Z"/></g></defs><g class="cls-4" clip-path="url(#clippath)"><g class="cls-5"><g><path fill="#333333" fill-opacity="1" stroke-width="0" d="M 200.83 87.71 L 200.83 48.16 L 161.28 48.16 L 161.28 87.71 L 200.83 87.71 M 200.83 139.57 L 200.83 100.01 L 161.28 100.01 L 161.28 139.57 L 200.83 139.57 M 200.83 196.68 L 200.83 157.13 L 161.28 157.13 L 161.28 196.68 L 200.83 196.68 M 256 23.43 L 256 232.57 L 145.67 232.57 L 145.67 23.43 L 256 23.43"/><path fill="#333333" fill-opacity="1" stroke-width="0" d="M 197.62 179.98 L 197.62 193.16 L 184.44 193.16 L 184.44 179.98 L 197.62 179.98 Z"/><path fill="#333333" fill-opacity="1" stroke-width="0" d="M 197.62 160.69 L 197.62 173.87 L 184.44 173.87 L 184.44 160.69 L 197.62 160.69 Z"/><path fill="#333333" fill-opacity="1" stroke-width="0" d="M 197.62 122.87 L 197.62 136.05 L 184.44 136.05 L 184.44 122.87 L 197.62 122.87 Z"/><path fill="#333333" fill-opacity="1" stroke-width="0" d="M 197.62 103.57 L 197.62 116.76 L 184.44 116.76 L 184.44 103.57 L 197.62 103.57 Z"/><path fill="#333333" fill-opacity="1" stroke-width="0" d="M 197.62 71.01 L 197.62 84.2 L 184.44 84.2 L 184.44 71.01 L 197.62 71.01 Z"/><path fill="#333333" fill-opacity="1" stroke-width="0" d="M 197.62 51.72 L 197.62 64.91 L 184.44 64.91 L 184.44 51.72 L 197.62 51.72 Z"/><path fill="#333333" fill-opacity="1" stroke-width="0" d="M 177.63 179.98 L 177.63 193.16 L 164.45 193.16 L 164.45 179.98 L 177.63 179.98 Z"/><path fill="#333333" fill-opacity="1" stroke-width="0" d="M 177.63 160.69 L 177.63 173.87 L 164.45 173.87 L 164.45 160.69 L 177.63 160.69 Z"/><path fill="#333333" fill-opacity="1" stroke-width="0" d="M 177.63 122.87 L 177.63 136.05 L 164.45 136.05 L 164.45 122.87 L 177.63 122.87 Z"/><path fill="#333333" fill-opacity="1" stroke-width="0" d="M 177.63 103.57 L 177.63 116.76 L 164.45 116.76 L 164.45 103.57 L 177.63 103.57 Z"/><path fill="#333333" fill-opacity="1" stroke-width="0" d="M 177.63 71.01 L 177.63 84.2 L 164.45 84.2 L 164.45 71.01 L 177.63 71.01 Z"/><path fill="#333333" fill-opacity="1" stroke-width="0" d="M 177.63 51.72 L 177.63 64.91 L 164.45 64.91 L 164.45 51.72 L 177.63 51.72 Z"/><path fill="#333333" fill-opacity="1" stroke-width="0" d="M 72.83 198.59 L 72.83 195.07 L 10.34 195.07 L 10.34 198.59 L 72.83 198.59 M 72.83 206.5 L 72.83 202.98 L 10.34 202.98 L 10.34 206.5 L 72.83 206.5 M 72.83 215.82 L 72.83 212.3 L 10.34 212.3 L 10.34 215.82 L 72.83 215.82 M 72.83 223.74 L 72.83 220.21 L 10.34 220.21 L 10.34 223.74 L 72.83 223.74 M 141.36 186.88 L 141.36 232.57 L 0 232.57 L 0 186.88 L 141.36 186.88"/><path fill="#333333" fill-opacity="1" stroke-width="0" d="M 141.36 173.1 L 141.36 180.3 L 0 180.3 L 0 173.1 L 141.36 173.1 Z"/><path fill="#333333" fill-opacity="1" stroke-width="0" d="M 123.85 122.65 L 128.23 167.07 L 89.01 167.07 L 93.39 122.64 L 93.53 122.64 C 93.53 122.64 123.83 122.64 123.83 122.64 L 123.84 122.64 L 123.85 122.65 Z"/><path fill="#333333" fill-opacity="1" stroke-width="0" d="M 121.34 60.92 C 122.64 60.92 123.7 61.98 123.7 63.29 C 123.7 64.6 122.64 65.66 121.34 65.66 L 95.9 65.66 C 94.59 65.66 93.54 64.6 93.54 63.29 C 93.54 62.64 93.8 62.05 94.23 61.62 C 94.66 61.19 95.26 60.92 95.9 60.92 L 121.34 60.92 Z"/><path fill="#333333" fill-opacity="1" stroke-width="0" d="M 118.42 67.73 L 119.73 81.05 L 97.5 81.05 L 98.81 67.73 L 118.42 67.73 Z"/><path fill="#333333" fill-opacity="1" stroke-width="0" d="M 97.21 83.98 L 119.73 83.98 L 120.02 83.95 L 123.54 119.58 L 93.7 119.58 L 97.21 83.98 Z"/><path fill="#333333" fill-opacity="1" stroke-width="0" d="M 76.42 122.87 L 80.8 167.28 L 41.58 167.28 L 45.96 122.85 L 46.1 122.85 C 46.1 122.85 76.41 122.86 76.41 122.86 L 76.42 122.87 Z"/><path fill="#333333" fill-opacity="1" stroke-width="0" d="M 76.12 119.8 L 46.27 119.8 L 49.78 84.2 L 72.31 84.2 L 72.6 84.17 L 76.12 119.8 Z"/><path fill="#333333" fill-opacity="1" stroke-width="0" d="M 73.91 61.14 C 75.22 61.14 76.28 62.19 76.28 63.5 C 76.28 64.81 75.22 65.86 73.91 65.86 L 48.48 65.86 C 47.17 65.86 46.11 64.8 46.11 63.5 C 46.11 62.85 46.38 62.26 46.81 61.83 C 47.24 61.4 47.83 61.14 48.48 61.14 L 73.91 61.14 Z"/><path fill="#333333" fill-opacity="1" stroke-width="0" d="M 71 67.94 L 72.31 81.26 L 50.08 81.26 L 51.39 67.94 L 71 67.94 Z"/></g></g></g></svg>
